<svg xmlns="http://www.w3.org/2000/svg" xmlns:xlink="http://www.w3.org/1999/xlink" width="500" zoomAndPan="magnify" viewBox="0 0 375 374.999991" height="500" preserveAspectRatio="xMidYMid meet" version="1.0"><defs><g/><clipPath id="9c6642a1d0"><path d="M 68.175781 137.402344 L 182.175781 137.402344 L 182.175781 237.902344 L 68.175781 237.902344 Z M 68.175781 137.402344 " clip-rule="nonzero"/></clipPath><clipPath id="5b8e6cbced"><path d="M 171 144.0625 L 315 144.0625 L 315 165.8125 L 171 165.8125 Z M 171 144.0625 " clip-rule="nonzero"/></clipPath></defs><path fill="#38b2ac" d="M 103.886719 202.070312 L 71.355469 202.070312 L 71.355469 168.757812 L 103.875 168.757812 C 100.585938 173.484375 98.652344 179.226562 98.652344 185.410156 C 98.652344 191.472656 100.550781 197.261719 103.886719 202.070312 Z M 103.886719 202.070312 " fill-opacity="1" fill-rule="nonzero"/><path fill="#000000" d="M 96.734375 144.75 C 96.734375 145.476562 96.023438 146.066406 95.148438 146.066406 L 81.863281 146.066406 C 80.992188 146.066406 80.28125 145.476562 80.28125 144.75 L 80.28125 142.28125 C 80.28125 141.558594 80.992188 140.964844 81.863281 140.964844 L 95.148438 140.964844 C 96.023438 140.964844 96.738281 141.558594 96.738281 142.28125 L 96.738281 144.75 Z M 96.734375 144.75 " fill-opacity="1" fill-rule="nonzero"/><path fill="#000000" d="M 88.9375 162.082031 C 88.9375 162.519531 88.578125 162.875 88.144531 162.875 L 77.039062 162.875 C 76.605469 162.875 76.246094 162.519531 76.246094 162.082031 L 76.246094 157.324219 C 76.246094 156.886719 76.605469 156.53125 77.039062 156.53125 L 88.144531 156.53125 C 88.578125 156.53125 88.9375 156.886719 88.9375 157.324219 Z M 88.9375 162.082031 " fill-opacity="1" fill-rule="nonzero"/><g clip-path="url(#9c6642a1d0)"><path fill="#000000" d="M 179.40625 137.433594 L 169.457031 148.597656 L 146.714844 148.597656 L 144.703125 141.621094 C 144.265625 140.097656 142.738281 138.949219 141.152344 138.949219 L 114.582031 138.949219 C 112.996094 138.949219 111.472656 140.097656 111.03125 141.617188 L 109.019531 148.597656 L 76.113281 148.597656 C 71.742188 148.597656 68.183594 152.15625 68.183594 156.527344 L 68.183594 214.296875 C 68.183594 218.671875 71.742188 222.226562 76.113281 222.226562 L 103.851562 222.226562 L 92.652344 234.792969 L 95.746094 237.550781 L 182.5 140.191406 Z M 121.140625 201.230469 C 120.992188 201.15625 120.84375 201.085938 120.699219 201.007812 C 112.253906 196.46875 109.089844 185.941406 113.632812 177.496094 C 117.207031 170.847656 124.488281 167.476562 131.546875 168.554688 C 125.28125 168.765625 119.292969 172.199219 116.109375 178.117188 C 111.804688 186.125 114.109375 195.914062 121.140625 201.230469 Z M 146.46875 174.402344 C 142.703125 168.054688 135.78125 163.796875 127.867188 163.800781 C 115.929688 163.800781 106.253906 173.476562 106.253906 185.414062 C 106.253906 194.214844 111.515625 201.785156 119.0625 205.160156 L 115.996094 208.597656 C 107.355469 204.160156 101.828125 195.179688 101.828125 185.414062 C 101.828125 171.054688 113.507812 159.371094 127.867188 159.371094 C 136.640625 159.371094 144.679688 163.691406 149.53125 170.964844 Z M 127.867188 156.199219 C 117.941406 156.199219 109.160156 161.171875 103.875 168.757812 C 100.585938 173.484375 98.652344 179.226562 98.652344 185.410156 C 98.652344 191.472656 100.550781 197.261719 103.886719 202.070312 C 106.425781 205.734375 109.808594 208.828125 113.824219 211.035156 L 106.679688 219.054688 L 76.113281 219.054688 C 73.492188 219.054688 71.355469 216.921875 71.355469 214.296875 L 71.355469 156.527344 C 71.355469 153.90625 73.492188 151.769531 76.113281 151.769531 L 111.40625 151.769531 L 114.078125 142.5 C 114.125 142.339844 114.417969 142.121094 114.582031 142.121094 L 141.152344 142.121094 C 141.316406 142.121094 141.609375 142.339844 141.652344 142.5 L 144.328125 151.769531 L 166.632812 151.769531 L 151.707031 168.523438 C 146.222656 160.777344 137.433594 156.199219 127.867188 156.199219 Z M 127.867188 156.199219 " fill-opacity="1" fill-rule="nonzero"/></g><g fill="#141414" fill-opacity="1"><g transform="translate(151.062725, 193.689947)"><g><path d="M 1.4375 -15.25 L 5.875 -15.25 L 5.875 0 L 1.4375 0 Z M 6.8125 -8.140625 L 7.34375 -8.140625 C 7.8125 -8.140625 8.160156 -8.15625 8.390625 -8.1875 C 8.617188 -8.226562 8.800781 -8.316406 8.9375 -8.453125 C 9.070312 -8.566406 9.15625 -8.738281 9.1875 -8.96875 C 9.226562 -9.195312 9.25 -9.539062 9.25 -10 C 9.25 -10.457031 9.226562 -10.800781 9.1875 -11.03125 C 9.15625 -11.257812 9.070312 -11.441406 8.9375 -11.578125 C 8.800781 -11.691406 8.613281 -11.765625 8.375 -11.796875 C 8.144531 -11.835938 7.800781 -11.859375 7.34375 -11.859375 L 6.8125 -11.859375 L 6.8125 -15.25 L 8.640625 -15.25 C 9.734375 -15.25 10.625 -15.140625 11.3125 -14.921875 C 12 -14.710938 12.519531 -14.390625 12.875 -13.953125 C 13.21875 -13.535156 13.445312 -13.007812 13.5625 -12.375 C 13.6875 -11.75 13.75 -10.957031 13.75 -10 C 13.75 -9.082031 13.691406 -8.320312 13.578125 -7.71875 C 13.460938 -7.113281 13.242188 -6.601562 12.921875 -6.1875 C 12.554688 -5.707031 12.03125 -5.347656 11.34375 -5.109375 C 10.65625 -4.867188 9.753906 -4.75 8.640625 -4.75 L 6.8125 -4.75 Z M 6.8125 -8.140625 "/></g></g></g><g fill="#141414" fill-opacity="1"><g transform="translate(165.356074, 193.689947)"><g><path d="M 1.4375 -15.25 L 5.875 -15.25 L 5.875 0 L 1.4375 0 Z M 1.4375 -15.25 "/></g></g></g><g fill="#141414" fill-opacity="1"><g transform="translate(172.668951, 193.689947)"><g><path d="M 0.203125 -15.25 L 5.234375 -15.25 L 14.921875 0 L 9.859375 0 Z M 8.3125 -12.15625 L 10 -15.25 L 14.859375 -15.25 L 10.640625 -8.46875 Z M 4.375 -6.921875 L 6.671875 -3.265625 L 4.96875 0 L 0.109375 0 Z M 4.375 -6.921875 "/></g></g></g><g fill="#141414" fill-opacity="1"><g transform="translate(187.693589, 193.689947)"><g><path d="M 1.4375 -15.25 L 5.875 -15.25 L 5.875 0 L 1.4375 0 Z M 6.8125 -15.25 L 12.4375 -15.25 L 12.4375 -11.859375 L 6.8125 -11.859375 Z M 6.8125 -9.40625 L 11.390625 -9.40625 L 11.390625 -6.015625 L 6.8125 -6.015625 Z M 6.8125 -3.390625 L 12.4375 -3.390625 L 12.4375 0 L 6.8125 0 Z M 6.8125 -3.390625 "/></g></g></g><g fill="#141414" fill-opacity="1"><g transform="translate(201.344296, 193.689947)"><g><path d="M 1.4375 -14.59375 L 1.4375 -15.25 L 5.515625 -15.25 L 11.90625 -1.6875 L 11.171875 0 L 8.296875 0 Z M 13.96875 -6.40625 L 13.875 -6.40625 L 12.390625 -2.8125 L 10.484375 -6.890625 L 13.96875 -15.25 L 18.1875 -15.25 L 18.1875 0 L 13.96875 0 Z M 1.4375 -12.390625 L 5.515625 -3.703125 L 5.515625 0 L 1.4375 0 Z M 1.4375 -12.390625 "/></g></g></g><g fill="#141414" fill-opacity="1"><g transform="translate(220.956103, 193.689947)"><g><path d="M 9.90625 -7.625 C 9.90625 -8.914062 9.898438 -9.757812 9.890625 -10.15625 C 9.859375 -10.757812 9.773438 -11.195312 9.640625 -11.46875 C 9.503906 -11.75 9.289062 -11.914062 9 -11.96875 C 8.707031 -12.019531 8.285156 -12.046875 7.734375 -12.046875 C 7.097656 -12.046875 6.6875 -12.015625 6.5 -11.953125 L 6.5 -15.40625 C 6.632812 -15.425781 6.832031 -15.4375 7.09375 -15.4375 L 7.734375 -15.4375 C 9.390625 -15.4375 10.671875 -15.304688 11.578125 -15.046875 C 12.492188 -14.785156 13.15625 -14.359375 13.5625 -13.765625 C 13.945312 -13.222656 14.1875 -12.503906 14.28125 -11.609375 C 14.382812 -10.722656 14.4375 -9.394531 14.4375 -7.625 C 14.4375 -6.070312 14.398438 -4.878906 14.328125 -4.046875 C 14.265625 -3.210938 14.097656 -2.519531 13.828125 -1.96875 C 13.535156 -1.351562 13.082031 -0.878906 12.46875 -0.546875 C 11.851562 -0.222656 11 -0.0078125 9.90625 0.09375 Z M 7.734375 0.171875 C 5.578125 0.171875 4.023438 -0.0625 3.078125 -0.53125 C 2.585938 -0.769531 2.203125 -1.085938 1.921875 -1.484375 C 1.640625 -1.878906 1.4375 -2.375 1.3125 -2.96875 C 1.1875 -3.488281 1.109375 -4.082031 1.078125 -4.75 C 1.054688 -5.425781 1.046875 -6.382812 1.046875 -7.625 C 1.046875 -9.175781 1.078125 -10.363281 1.140625 -11.1875 C 1.203125 -12.019531 1.367188 -12.71875 1.640625 -13.28125 C 1.929688 -13.882812 2.378906 -14.347656 2.984375 -14.671875 C 3.597656 -15.003906 4.457031 -15.226562 5.5625 -15.34375 L 5.5625 -7.625 C 5.5625 -6.75 5.578125 -5.914062 5.609375 -5.125 C 5.640625 -4.519531 5.71875 -4.078125 5.84375 -3.796875 C 5.96875 -3.515625 6.175781 -3.347656 6.46875 -3.296875 C 6.71875 -3.242188 7.140625 -3.21875 7.734375 -3.21875 C 8.335938 -3.21875 8.753906 -3.238281 8.984375 -3.28125 L 8.984375 0.15625 C 8.847656 0.164062 8.644531 0.171875 8.375 0.171875 Z M 7.734375 0.171875 "/></g></g></g><g fill="#141414" fill-opacity="1"><g transform="translate(236.423948, 193.689947)"><g><path d="M 0.203125 -15.25 L 12.6875 -15.25 L 12.6875 -11.703125 L 0.203125 -11.703125 Z M 4.21875 -10.8125 L 8.640625 -10.8125 L 8.640625 0 L 4.21875 0 Z M 4.21875 -10.8125 "/></g></g></g><g fill="#141414" fill-opacity="1"><g transform="translate(249.299043, 193.689947)"><g><path d="M 1.4375 -15.25 L 5.875 -15.25 L 5.875 0 L 1.4375 0 Z M 1.4375 -15.25 "/></g></g></g><g fill="#141414" fill-opacity="1"><g transform="translate(256.61192, 193.689947)"><g><path d="M 9.90625 -7.625 C 9.90625 -8.914062 9.898438 -9.757812 9.890625 -10.15625 C 9.859375 -10.757812 9.773438 -11.195312 9.640625 -11.46875 C 9.503906 -11.75 9.289062 -11.914062 9 -11.96875 C 8.707031 -12.019531 8.285156 -12.046875 7.734375 -12.046875 C 7.097656 -12.046875 6.6875 -12.015625 6.5 -11.953125 L 6.5 -15.40625 C 6.632812 -15.425781 6.832031 -15.4375 7.09375 -15.4375 L 7.734375 -15.4375 C 9.390625 -15.4375 10.671875 -15.304688 11.578125 -15.046875 C 12.492188 -14.785156 13.15625 -14.359375 13.5625 -13.765625 C 13.945312 -13.222656 14.1875 -12.503906 14.28125 -11.609375 C 14.382812 -10.722656 14.4375 -9.394531 14.4375 -7.625 C 14.4375 -6.070312 14.398438 -4.878906 14.328125 -4.046875 C 14.265625 -3.210938 14.097656 -2.519531 13.828125 -1.96875 C 13.535156 -1.351562 13.082031 -0.878906 12.46875 -0.546875 C 11.851562 -0.222656 11 -0.0078125 9.90625 0.09375 Z M 7.734375 0.171875 C 5.578125 0.171875 4.023438 -0.0625 3.078125 -0.53125 C 2.585938 -0.769531 2.203125 -1.085938 1.921875 -1.484375 C 1.640625 -1.878906 1.4375 -2.375 1.3125 -2.96875 C 1.1875 -3.488281 1.109375 -4.082031 1.078125 -4.75 C 1.054688 -5.425781 1.046875 -6.382812 1.046875 -7.625 C 1.046875 -9.175781 1.078125 -10.363281 1.140625 -11.1875 C 1.203125 -12.019531 1.367188 -12.71875 1.640625 -13.28125 C 1.929688 -13.882812 2.378906 -14.347656 2.984375 -14.671875 C 3.597656 -15.003906 4.457031 -15.226562 5.5625 -15.34375 L 5.5625 -7.625 C 5.5625 -6.75 5.578125 -5.914062 5.609375 -5.125 C 5.640625 -4.519531 5.71875 -4.078125 5.84375 -3.796875 C 5.96875 -3.515625 6.175781 -3.347656 6.46875 -3.296875 C 6.71875 -3.242188 7.140625 -3.21875 7.734375 -3.21875 C 8.335938 -3.21875 8.753906 -3.238281 8.984375 -3.28125 L 8.984375 0.15625 C 8.847656 0.164062 8.644531 0.171875 8.375 0.171875 Z M 7.734375 0.171875 "/></g></g></g><g fill="#141414" fill-opacity="1"><g transform="translate(272.079765, 193.689947)"><g><path d="M 1.4375 -14.640625 L 1.4375 -15.25 L 5.875 -15.25 L 14.4375 -0.640625 L 14.4375 0 L 10.015625 0 Z M 10.21875 -9.6875 L 10.21875 -15.25 L 14.4375 -15.25 L 14.4375 -2.484375 Z M 1.4375 -12.796875 L 5.65625 -5.59375 L 5.65625 0 L 1.4375 0 Z M 1.4375 -12.796875 "/></g></g></g><g fill="#141414" fill-opacity="1"><g transform="translate(287.946494, 193.689947)"><g><path d="M 11.953125 -11.75 C 11.460938 -11.8125 10.601562 -11.894531 9.375 -12 C 8.695312 -12.03125 8.148438 -12.046875 7.734375 -12.046875 C 7.203125 -12.046875 6.703125 -12.03125 6.234375 -12 L 6.234375 -15.4375 L 6.78125 -15.4375 C 8 -15.4375 9.253906 -15.351562 10.546875 -15.1875 C 10.960938 -15.125 11.429688 -15.039062 11.953125 -14.9375 Z M 8.296875 -4.5 C 8.296875 -4.8125 8.269531 -5.035156 8.21875 -5.171875 C 8.175781 -5.316406 8.101562 -5.414062 8 -5.46875 C 7.894531 -5.519531 7.71875 -5.5625 7.46875 -5.59375 L 4.75 -5.921875 C 3.132812 -6.097656 2.046875 -6.625 1.484375 -7.5 C 1.234375 -7.863281 1.0625 -8.3125 0.96875 -8.84375 C 0.882812 -9.375 0.84375 -10.023438 0.84375 -10.796875 C 0.84375 -12.441406 1.265625 -13.625 2.109375 -14.34375 C 2.785156 -14.9375 3.847656 -15.285156 5.296875 -15.390625 L 5.296875 -10.9375 C 5.296875 -10.738281 5.300781 -10.570312 5.3125 -10.4375 C 5.332031 -10.3125 5.363281 -10.207031 5.40625 -10.125 C 5.445312 -10.039062 5.519531 -9.976562 5.625 -9.9375 C 5.726562 -9.90625 5.882812 -9.878906 6.09375 -9.859375 L 9.15625 -9.484375 C 9.789062 -9.398438 10.304688 -9.289062 10.703125 -9.15625 C 11.109375 -9.019531 11.453125 -8.8125 11.734375 -8.53125 C 12.398438 -7.84375 12.734375 -6.609375 12.734375 -4.828125 C 12.734375 -2.953125 12.316406 -1.640625 11.484375 -0.890625 C 11.117188 -0.546875 10.671875 -0.296875 10.140625 -0.140625 C 9.617188 0.015625 9.003906 0.113281 8.296875 0.15625 Z M 7.125 0.171875 C 5.644531 0.171875 4.269531 0.109375 3 -0.015625 C 2.238281 -0.0976562 1.664062 -0.175781 1.28125 -0.25 L 1.28125 -3.484375 C 2.15625 -3.410156 3.15625 -3.335938 4.28125 -3.265625 C 4.988281 -3.234375 5.488281 -3.21875 5.78125 -3.21875 C 6.582031 -3.21875 7.109375 -3.238281 7.359375 -3.28125 L 7.359375 0.171875 Z M 7.125 0.171875 "/></g></g></g><g clip-path="url(#5b8e6cbced)"><path fill="#000000" d="M 172.1875 165.242188 C 181.054688 160.65625 191.402344 159.597656 201.238281 159.359375 C 211.824219 159.085938 222.382812 159.78125 232.910156 160.746094 C 243.558594 161.742188 254.179688 162.976562 264.859375 163.730469 C 270.167969 164.09375 275.507812 164.304688 280.847656 164.335938 C 285.855469 164.367188 290.921875 164.394531 295.929688 163.792969 C 300.96875 163.1875 306.003906 161.769531 309.867188 158.300781 C 313.246094 155.253906 315.6875 150.609375 314.753906 145.992188 C 314.363281 144.0625 311.34375 144.515625 311.34375 146.445312 C 311.375 150.550781 309.777344 154.019531 306.609375 156.613281 C 303.050781 159.539062 298.28125 160.566406 293.847656 161.109375 C 283.773438 162.285156 273.515625 161.890625 263.410156 161.199219 C 242.898438 159.75 222.445312 156.402344 201.839844 157.125 C 191.339844 157.457031 180.722656 158.664062 171.582031 164.214844 C 170.917969 164.605469 171.492188 165.601562 172.1875 165.242188 Z M 172.1875 165.242188 " fill-opacity="1" fill-rule="nonzero"/></g><path fill="#000000" d="M 176.167969 158.542969 C 185.15625 155.253906 194.449219 154.472656 203.953125 154.410156 C 204.464844 154.410156 204.644531 153.535156 204.070312 153.476562 C 194.570312 152.058594 184.675781 154.320312 175.957031 158.152344 C 175.777344 158.242188 175.925781 158.632812 176.167969 158.542969 Z M 176.167969 158.542969 " fill-opacity="1" fill-rule="nonzero"/><path fill="#000000" d="M 306.335938 163.824219 C 309.804688 163.339844 313.003906 161.679688 315.417969 159.175781 C 316.65625 157.910156 317.710938 156.460938 318.433594 154.863281 C 319.039062 153.597656 320.152344 151.332031 319.25 150.035156 C 318.828125 149.433594 318.101562 149.34375 317.558594 149.824219 C 316.535156 150.699219 316.683594 152.691406 316.261719 153.957031 C 315.78125 155.40625 315.085938 156.761719 314.210938 158 C 312.25 160.683594 309.445312 162.644531 306.246094 163.519531 C 306.035156 163.550781 306.125 163.851562 306.335938 163.824219 Z M 306.335938 163.824219 " fill-opacity="1" fill-rule="nonzero"/></svg>