<svg xmlns="http://www.w3.org/2000/svg" xmlns:xlink="http://www.w3.org/1999/xlink" width="500" zoomAndPan="magnify" viewBox="0 0 375 374.999991" height="500" preserveAspectRatio="xMidYMid meet" version="1.0"><defs><g/><clipPath id="ff1bf2582f"><path d="M 90 132.109375 L 178 132.109375 L 178 209 L 90 209 Z M 90 132.109375 " clip-rule="nonzero"/></clipPath></defs><path fill="#000000" d="M 174.007812 158.570312 C 169.679688 153.132812 163.710938 148.957031 157.023438 146.96875 C 149.394531 144.648438 140.914062 144.960938 133.582031 148.117188 C 141.691406 145.523438 150.78125 146.050781 158.40625 149.933594 C 163.164062 152.332031 167.375 155.859375 170.4375 160.230469 C 175.273438 166.976562 177.34375 175.636719 176.09375 183.847656 C 174.730469 193.578125 168.585938 202.429688 160.082031 207.304688 C 150.917969 212.6875 139.078125 213.058594 129.582031 208.300781 C 124.511719 205.882812 120.300781 201.964844 116.964844 197.496094 C 118.582031 200.421875 120.730469 203.054688 123.148438 205.355469 C 131.960938 213.742188 145.261719 216.804688 156.867188 213.253906 C 163.300781 211.304688 169.074219 207.421875 173.441406 202.332031 C 177.691406 197.144531 180.480469 190.75 181.242188 184.082031 C 182.316406 175.050781 179.644531 165.671875 174.007812 158.570312 Z M 174.007812 158.570312 " fill-opacity="1" fill-rule="nonzero"/><path fill="#000000" d="M 130.285156 156.171875 C 137.96875 151.550781 148.070312 151.335938 155.949219 155.628906 C 160.21875 157.871094 163.730469 161.378906 166.1875 165.496094 C 165.445312 164.695312 164.765625 163.835938 164.042969 163.019531 C 159.691406 158.066406 153.238281 155.101562 146.667969 154.867188 C 140.464844 154.671875 134.222656 156.914062 129.601562 161.046875 C 128.140625 162.355469 127.105469 164.285156 127.378906 166.292969 C 127.554688 168.050781 127.789062 169.863281 127.125 171.558594 C 126.363281 173.316406 124.824219 174.464844 123.1875 175.34375 C 121.664062 176.105469 121.292969 177.9375 121.273438 179.476562 C 121.234375 186.539062 124.511719 193.5 129.875 198.082031 C 134.027344 201.671875 139.410156 203.738281 144.871094 203.992188 C 146.511719 204.050781 148.128906 203.875 149.765625 203.875 C 147.210938 204.964844 144.363281 204.789062 141.632812 204.769531 C 135.199219 204.285156 128.996094 201.359375 124.589844 196.640625 C 121.410156 193.285156 119.148438 189.054688 118.117188 184.566406 C 117.0625 180.082031 117.257812 175.324219 118.601562 170.9375 C 120.496094 164.792969 124.746094 159.429688 130.285156 156.171875 Z M 130.285156 156.171875 " fill-opacity="1" fill-rule="nonzero"/><path fill="#000000" d="M 133.269531 148.664062 C 133.269531 148.875 133.195312 149.054688 133.046875 149.203125 C 132.898438 149.351562 132.71875 149.425781 132.507812 149.425781 C 132.296875 149.425781 132.117188 149.351562 131.96875 149.203125 C 131.820312 149.054688 131.746094 148.875 131.746094 148.664062 C 131.746094 148.453125 131.820312 148.277344 131.96875 148.128906 C 132.117188 147.980469 132.296875 147.90625 132.507812 147.90625 C 132.71875 147.90625 132.898438 147.980469 133.046875 148.128906 C 133.195312 148.277344 133.269531 148.453125 133.269531 148.664062 Z M 133.269531 148.664062 " fill-opacity="1" fill-rule="nonzero"/><path fill="#000000" d="M 130.988281 150.167969 C 130.988281 150.3125 130.957031 150.457031 130.902344 150.59375 C 130.84375 150.726562 130.765625 150.847656 130.660156 150.953125 C 130.558594 151.058594 130.4375 151.136719 130.300781 151.195312 C 130.164062 151.25 130.023438 151.277344 129.875 151.277344 C 129.726562 151.277344 129.585938 151.25 129.449219 151.195312 C 129.3125 151.136719 129.191406 151.058594 129.089844 150.953125 C 128.984375 150.847656 128.90625 150.726562 128.847656 150.59375 C 128.792969 150.457031 128.761719 150.3125 128.761719 150.167969 C 128.761719 150.019531 128.792969 149.878906 128.847656 149.742188 C 128.90625 149.605469 128.984375 149.484375 129.089844 149.378906 C 129.191406 149.277344 129.3125 149.195312 129.449219 149.140625 C 129.585938 149.082031 129.726562 149.054688 129.875 149.054688 C 130.023438 149.054688 130.164062 149.082031 130.300781 149.140625 C 130.4375 149.195312 130.558594 149.277344 130.660156 149.378906 C 130.765625 149.484375 130.84375 149.605469 130.902344 149.742188 C 130.957031 149.878906 130.988281 150.019531 130.988281 150.167969 Z M 130.988281 150.167969 " fill-opacity="1" fill-rule="nonzero"/><path fill="#000000" d="M 166.851562 166.476562 C 167.058594 166.53125 167.214844 166.65625 167.324219 166.839844 C 167.429688 167.027344 167.457031 167.226562 167.402344 167.433594 C 167.34375 167.640625 167.222656 167.800781 167.035156 167.90625 C 166.847656 168.011719 166.652344 168.039062 166.445312 167.984375 C 166.234375 167.925781 166.078125 167.804688 165.972656 167.617188 C 165.863281 167.429688 165.839844 167.234375 165.894531 167.027344 C 165.949219 166.816406 166.074219 166.660156 166.257812 166.554688 C 166.445312 166.445312 166.644531 166.421875 166.851562 166.476562 Z M 166.851562 166.476562 " fill-opacity="1" fill-rule="nonzero"/><path fill="#000000" d="M 167.742188 169.191406 C 167.890625 169.230469 168.023438 169.296875 168.144531 169.390625 C 168.265625 169.484375 168.363281 169.597656 168.441406 169.730469 C 168.515625 169.859375 168.5625 170.003906 168.582031 170.152344 C 168.601562 170.304688 168.59375 170.453125 168.554688 170.601562 C 168.511719 170.75 168.445312 170.882812 168.351562 171.003906 C 168.261719 171.125 168.148438 171.222656 168.015625 171.300781 C 167.882812 171.375 167.742188 171.421875 167.589844 171.441406 C 167.4375 171.460938 167.289062 171.453125 167.140625 171.414062 C 166.996094 171.371094 166.859375 171.304688 166.738281 171.210938 C 166.617188 171.121094 166.519531 171.007812 166.445312 170.875 C 166.367188 170.742188 166.320312 170.601562 166.300781 170.449219 C 166.28125 170.296875 166.292969 170.148438 166.332031 170 C 166.371094 169.855469 166.4375 169.71875 166.53125 169.597656 C 166.625 169.476562 166.738281 169.378906 166.871094 169.304688 C 167 169.226562 167.144531 169.179688 167.292969 169.160156 C 167.445312 169.140625 167.59375 169.152344 167.742188 169.191406 Z M 167.742188 169.191406 " fill-opacity="1" fill-rule="nonzero"/><g clip-path="url(#ff1bf2582f)"><path fill="#000000" d="M 171.472656 136.59375 C 170.496094 134.429688 168.722656 132.1875 166.128906 132.148438 C 154.371094 132.128906 142.609375 132.148438 130.851562 132.148438 C 128.761719 132.109375 127.046875 133.628906 126.035156 135.324219 C 123.691406 139.148438 121.214844 142.890625 118.796875 146.65625 C 118.214844 147.515625 117.550781 148.605469 116.378906 148.585938 C 111.113281 148.703125 105.847656 148.566406 100.582031 148.625 C 97.40625 148.664062 94.421875 150.382812 92.492188 152.839844 C 90.714844 155.140625 89.9375 158.066406 90.089844 160.949219 C 90.089844 168.480469 90.089844 176.007812 90.070312 183.515625 C 90.128906 189.152344 89.996094 194.785156 90.109375 200.402344 C 90.714844 203.699219 92.585938 206.898438 95.707031 208.359375 C 94.421875 206.722656 93.621094 204.710938 93.5625 202.625 C 93.445312 197.398438 93.5625 192.171875 93.503906 186.964844 C 93.503906 185.699219 93.542969 184.429688 93.503906 183.144531 L 93.503906 180.863281 C 93.523438 174.523438 93.484375 168.1875 93.484375 161.828125 C 93.503906 159.097656 94.226562 156.210938 96.175781 154.203125 C 97.773438 152.507812 100.15625 151.824219 102.4375 151.785156 C 106.003906 151.726562 109.59375 151.785156 113.164062 151.765625 C 115.757812 151.492188 119.285156 152.761719 120.960938 150.089844 C 123.730469 145.738281 126.363281 141.3125 129.132812 136.964844 C 129.875 135.734375 131.242188 134.976562 132.683594 135.054688 C 143.839844 135.054688 154.972656 135.035156 166.128906 135.074219 C 167.824219 135.015625 169.171875 136.261719 170.046875 137.589844 C 171.824219 140.222656 173.363281 143.007812 175.15625 145.640625 L 175.605469 146.402344 L 176.796875 148.371094 L 177.578125 149.679688 L 177.828125 150.109375 C 175.898438 145.523438 173.597656 141.097656 171.472656 136.59375 Z M 171.472656 136.59375 " fill-opacity="1" fill-rule="nonzero"/></g><path fill="#000000" d="M 113.375 147.027344 L 104.757812 147.027344 C 103.742188 147.027344 102.921875 146.207031 102.921875 145.195312 C 102.921875 144.179688 103.742188 143.359375 104.757812 143.359375 L 113.375 143.359375 C 114.390625 143.359375 115.210938 144.179688 115.210938 145.195312 C 115.210938 146.207031 114.390625 147.027344 113.375 147.027344 Z M 113.375 147.027344 " fill-opacity="1" fill-rule="nonzero"/><g fill="#000000" fill-opacity="1"><g transform="translate(187.636427, 195.22487)"><g><path d="M 76.859375 -56.140625 C 78.785156 -54.585938 80.351562 -52.804688 81.5625 -50.796875 C 82.78125 -48.796875 83.59375 -46.550781 84 -44.0625 C 84.21875 -42.78125 84.265625 -41.515625 84.140625 -40.265625 C 84.023438 -39.023438 83.804688 -37.789062 83.484375 -36.5625 C 82.984375 -34.53125 82.257812 -32.601562 81.3125 -30.78125 C 80.375 -28.957031 79.273438 -27.21875 78.015625 -25.5625 C 76.328125 -23.414062 74.441406 -21.5 72.359375 -19.8125 C 70.285156 -18.132812 68.078125 -16.613281 65.734375 -15.25 C 60.773438 -12.34375 55.566406 -9.984375 50.109375 -8.171875 C 49.742188 -8.023438 49.351562 -7.878906 48.9375 -7.734375 C 48.382812 -7.554688 47.992188 -7.398438 47.765625 -7.265625 C 47.535156 -7.140625 47.390625 -6.941406 47.328125 -6.671875 C 47.273438 -6.410156 47.25 -6.003906 47.25 -5.453125 C 47.25 1.410156 47.234375 8.265625 47.203125 15.109375 C 47.203125 16.003906 47.203125 16.890625 47.203125 17.765625 C 47.203125 17.828125 47.203125 17.867188 47.203125 17.890625 C 47.203125 18.378906 47.195312 18.863281 47.1875 19.34375 C 47.175781 19.832031 47.097656 20.304688 46.953125 20.765625 C 46.734375 21.554688 46.25 21.929688 45.5 21.890625 C 44.84375 21.867188 44.410156 21.539062 44.203125 20.90625 C 43.929688 19.863281 43.816406 18.785156 43.859375 17.671875 C 43.859375 16.628906 43.859375 15.59375 43.859375 14.5625 C 43.859375 8.6875 43.859375 2.820312 43.859375 -3.03125 C 43.859375 -3.238281 43.859375 -3.453125 43.859375 -3.671875 C 43.941406 -4.367188 43.867188 -5.128906 43.640625 -5.953125 C 43.234375 -5.910156 42.875 -5.835938 42.5625 -5.734375 C 42.03125 -5.585938 41.519531 -5.554688 41.03125 -5.640625 C 40.84375 -5.660156 40.675781 -5.707031 40.53125 -5.78125 C 40.394531 -5.851562 40.3125 -5.992188 40.28125 -6.203125 C 40.28125 -6.617188 40.457031 -6.878906 40.8125 -6.984375 C 41.5 -7.273438 42.207031 -7.523438 42.9375 -7.734375 C 43.582031 -7.953125 43.890625 -8.398438 43.859375 -9.078125 C 43.859375 -9.484375 43.859375 -9.90625 43.859375 -10.34375 C 43.859375 -10.5625 43.859375 -10.804688 43.859375 -11.078125 C 43.859375 -14.578125 43.859375 -18.070312 43.859375 -21.5625 C 43.890625 -29.332031 43.90625 -37.125 43.90625 -44.9375 C 43.90625 -45.007812 43.90625 -45.101562 43.90625 -45.21875 C 43.90625 -45.800781 43.914062 -46.367188 43.9375 -46.921875 C 44.03125 -47.941406 44.585938 -48.453125 45.609375 -48.453125 C 46.578125 -48.421875 47.109375 -47.898438 47.203125 -46.890625 C 47.234375 -46.390625 47.234375 -45.894531 47.203125 -45.40625 C 47.203125 -45.226562 47.203125 -45.054688 47.203125 -44.890625 C 47.203125 -42.453125 47.203125 -40.023438 47.203125 -37.609375 C 47.234375 -29.171875 47.25 -20.734375 47.25 -12.296875 C 47.25 -12.085938 47.25 -11.867188 47.25 -11.640625 C 47.195312 -10.941406 47.253906 -10.257812 47.421875 -9.59375 C 47.585938 -9.445312 47.75 -9.390625 47.90625 -9.421875 C 48.070312 -9.453125 48.226562 -9.492188 48.375 -9.546875 C 52.4375 -11.066406 56.332031 -12.867188 60.0625 -14.953125 C 63.789062 -17.035156 67.273438 -19.5 70.515625 -22.34375 C 74.722656 -26.019531 77.695312 -30.539062 79.4375 -35.90625 C 80.332031 -38.875 80.582031 -41.625 80.1875 -44.15625 C 79.800781 -46.695312 78.90625 -48.976562 77.5 -51 C 76.101562 -53.019531 74.332031 -54.734375 72.1875 -56.140625 C 68.46875 -58.578125 64.050781 -60.085938 58.9375 -60.671875 C 53.820312 -61.253906 48.453125 -61.066406 42.828125 -60.109375 C 37.210938 -59.148438 31.796875 -57.597656 26.578125 -55.453125 C 21.359375 -53.304688 16.785156 -50.722656 12.859375 -47.703125 C 8.929688 -44.691406 6.082031 -41.429688 4.3125 -37.921875 C 3.90625 -37.222656 3.613281 -36.492188 3.4375 -35.734375 C 3.269531 -34.984375 3.285156 -34.191406 3.484375 -33.359375 C 3.597656 -32.890625 3.53125 -32.535156 3.28125 -32.296875 C 3.03125 -32.066406 2.675781 -31.988281 2.21875 -32.0625 C 1.289062 -32.207031 0.648438 -32.691406 0.296875 -33.515625 C 0.00390625 -34.242188 -0.046875 -34.988281 0.140625 -35.75 C 0.453125 -37.257812 1.046875 -38.640625 1.921875 -39.890625 C 4.722656 -43.972656 8.625 -47.601562 13.625 -50.78125 C 18.632812 -53.957031 24.179688 -56.5625 30.265625 -58.59375 C 36.359375 -60.625 42.453125 -61.9375 48.546875 -62.53125 C 54.640625 -63.125 60.164062 -62.867188 65.125 -61.765625 C 67.300781 -61.273438 69.363281 -60.570312 71.3125 -59.65625 C 73.269531 -58.738281 75.117188 -57.566406 76.859375 -56.140625 Z M 76.859375 -56.140625 "/></g></g></g><g fill="#000000" fill-opacity="1"><g transform="translate(104.189874, 237.846431)"><g><path d="M 1.234375 -13 L 5 -13 L 5 0 L 1.234375 0 Z M 5.796875 -6.9375 L 6.25 -6.9375 C 6.65625 -6.9375 6.953125 -6.953125 7.140625 -6.984375 C 7.335938 -7.015625 7.492188 -7.085938 7.609375 -7.203125 C 7.722656 -7.296875 7.796875 -7.441406 7.828125 -7.640625 C 7.859375 -7.835938 7.875 -8.128906 7.875 -8.515625 C 7.875 -8.910156 7.859375 -9.203125 7.828125 -9.390625 C 7.796875 -9.585938 7.722656 -9.742188 7.609375 -9.859375 C 7.492188 -9.960938 7.335938 -10.03125 7.140625 -10.0625 C 6.941406 -10.09375 6.644531 -10.109375 6.25 -10.109375 L 5.796875 -10.109375 L 5.796875 -13 L 7.375 -13 C 8.300781 -13 9.054688 -12.90625 9.640625 -12.71875 C 10.222656 -12.539062 10.664062 -12.257812 10.96875 -11.875 C 11.257812 -11.53125 11.457031 -11.085938 11.5625 -10.546875 C 11.664062 -10.015625 11.71875 -9.335938 11.71875 -8.515625 C 11.71875 -7.734375 11.664062 -7.082031 11.5625 -6.5625 C 11.46875 -6.050781 11.285156 -5.617188 11.015625 -5.265625 C 10.703125 -4.867188 10.25 -4.566406 9.65625 -4.359375 C 9.070312 -4.148438 8.3125 -4.046875 7.375 -4.046875 L 5.796875 -4.046875 Z M 5.796875 -6.9375 "/></g></g></g><g fill="#000000" fill-opacity="1"><g transform="translate(120.209937, 237.846431)"><g><path d="M 1.234375 -13 L 5 -13 L 5 0 L 1.234375 0 Z M 1.234375 -13 "/></g></g></g><g fill="#000000" fill-opacity="1"><g transform="translate(130.279461, 237.846431)"><g><path d="M 0.171875 -13 L 4.453125 -13 L 12.71875 0 L 8.40625 0 Z M 7.078125 -10.359375 L 8.515625 -13 L 12.65625 -13 L 9.0625 -7.21875 Z M 3.71875 -5.890625 L 5.6875 -2.78125 L 4.234375 0 L 0.09375 0 Z M 3.71875 -5.890625 "/></g></g></g><g fill="#000000" fill-opacity="1"><g transform="translate(146.922918, 237.846431)"><g><path d="M 1.234375 -13 L 5 -13 L 5 0 L 1.234375 0 Z M 5.796875 -13 L 10.59375 -13 L 10.59375 -10.109375 L 5.796875 -10.109375 Z M 5.796875 -8.015625 L 9.703125 -8.015625 L 9.703125 -5.125 L 5.796875 -5.125 Z M 5.796875 -2.890625 L 10.59375 -2.890625 L 10.59375 0 L 5.796875 0 Z M 5.796875 -2.890625 "/></g></g></g><g fill="#000000" fill-opacity="1"><g transform="translate(162.395163, 237.846431)"><g><path d="M 1.234375 -12.4375 L 1.234375 -13 L 4.703125 -13 L 10.140625 -1.4375 L 9.515625 0 L 7.0625 0 Z M 11.90625 -5.453125 L 11.828125 -5.453125 L 10.5625 -2.40625 L 8.9375 -5.875 L 11.90625 -13 L 15.484375 -13 L 15.484375 0 L 11.90625 0 Z M 1.234375 -10.5625 L 4.703125 -3.15625 L 4.703125 0 L 1.234375 0 Z M 1.234375 -10.5625 "/></g></g></g><g fill="#000000" fill-opacity="1"><g transform="translate(182.948974, 237.846431)"><g><path d="M 8.4375 -6.5 C 8.4375 -7.59375 8.429688 -8.3125 8.421875 -8.65625 C 8.398438 -9.164062 8.332031 -9.535156 8.21875 -9.765625 C 8.101562 -10.003906 7.921875 -10.148438 7.671875 -10.203125 C 7.421875 -10.234375 7.0625 -10.25 6.59375 -10.25 C 6.050781 -10.25 5.695312 -10.226562 5.53125 -10.1875 L 5.53125 -13.125 C 5.644531 -13.132812 5.816406 -13.140625 6.046875 -13.140625 L 6.59375 -13.140625 C 8 -13.140625 9.085938 -13.03125 9.859375 -12.8125 C 10.640625 -12.59375 11.207031 -12.234375 11.5625 -11.734375 C 11.882812 -11.265625 12.085938 -10.648438 12.171875 -9.890625 C 12.253906 -9.140625 12.296875 -8.007812 12.296875 -6.5 C 12.296875 -5.175781 12.265625 -4.15625 12.203125 -3.4375 C 12.148438 -2.726562 12.007812 -2.144531 11.78125 -1.6875 C 11.53125 -1.15625 11.144531 -0.75 10.625 -0.46875 C 10.101562 -0.195312 9.375 -0.015625 8.4375 0.078125 Z M 6.59375 0.15625 C 4.75 0.15625 3.425781 -0.046875 2.625 -0.453125 C 2.207031 -0.648438 1.878906 -0.921875 1.640625 -1.265625 C 1.398438 -1.609375 1.222656 -2.03125 1.109375 -2.53125 C 1.015625 -2.96875 0.953125 -3.472656 0.921875 -4.046875 C 0.898438 -4.617188 0.890625 -5.4375 0.890625 -6.5 C 0.890625 -7.820312 0.914062 -8.832031 0.96875 -9.53125 C 1.03125 -10.238281 1.171875 -10.832031 1.390625 -11.3125 C 1.648438 -11.832031 2.035156 -12.226562 2.546875 -12.5 C 3.066406 -12.78125 3.796875 -12.972656 4.734375 -13.078125 L 4.734375 -6.5 C 4.734375 -5.757812 4.75 -5.046875 4.78125 -4.359375 C 4.800781 -3.847656 4.863281 -3.472656 4.96875 -3.234375 C 5.082031 -2.992188 5.265625 -2.851562 5.515625 -2.8125 C 5.734375 -2.757812 6.09375 -2.734375 6.59375 -2.734375 C 7.113281 -2.734375 7.46875 -2.753906 7.65625 -2.796875 L 7.65625 0.125 C 7.539062 0.144531 7.367188 0.15625 7.140625 0.15625 Z M 6.59375 0.15625 "/></g></g></g><g fill="#000000" fill-opacity="1"><g transform="translate(199.970245, 237.846431)"><g><path d="M 0.171875 -13 L 10.8125 -13 L 10.8125 -9.96875 L 0.171875 -9.96875 Z M 3.59375 -9.21875 L 7.375 -9.21875 L 7.375 0 L 3.59375 0 Z M 3.59375 -9.21875 "/></g></g></g><g fill="#000000" fill-opacity="1"><g transform="translate(214.781314, 237.846431)"><g><path d="M 1.234375 -13 L 5 -13 L 5 0 L 1.234375 0 Z M 1.234375 -13 "/></g></g></g><g fill="#000000" fill-opacity="1"><g transform="translate(224.850832, 237.846431)"><g><path d="M 8.4375 -6.5 C 8.4375 -7.59375 8.429688 -8.3125 8.421875 -8.65625 C 8.398438 -9.164062 8.332031 -9.535156 8.21875 -9.765625 C 8.101562 -10.003906 7.921875 -10.148438 7.671875 -10.203125 C 7.421875 -10.234375 7.0625 -10.25 6.59375 -10.25 C 6.050781 -10.25 5.695312 -10.226562 5.53125 -10.1875 L 5.53125 -13.125 C 5.644531 -13.132812 5.816406 -13.140625 6.046875 -13.140625 L 6.59375 -13.140625 C 8 -13.140625 9.085938 -13.03125 9.859375 -12.8125 C 10.640625 -12.59375 11.207031 -12.234375 11.5625 -11.734375 C 11.882812 -11.265625 12.085938 -10.648438 12.171875 -9.890625 C 12.253906 -9.140625 12.296875 -8.007812 12.296875 -6.5 C 12.296875 -5.175781 12.265625 -4.15625 12.203125 -3.4375 C 12.148438 -2.726562 12.007812 -2.144531 11.78125 -1.6875 C 11.53125 -1.15625 11.144531 -0.75 10.625 -0.46875 C 10.101562 -0.195312 9.375 -0.015625 8.4375 0.078125 Z M 6.59375 0.15625 C 4.75 0.15625 3.425781 -0.046875 2.625 -0.453125 C 2.207031 -0.648438 1.878906 -0.921875 1.640625 -1.265625 C 1.398438 -1.609375 1.222656 -2.03125 1.109375 -2.53125 C 1.015625 -2.96875 0.953125 -3.472656 0.921875 -4.046875 C 0.898438 -4.617188 0.890625 -5.4375 0.890625 -6.5 C 0.890625 -7.820312 0.914062 -8.832031 0.96875 -9.53125 C 1.03125 -10.238281 1.171875 -10.832031 1.390625 -11.3125 C 1.648438 -11.832031 2.035156 -12.226562 2.546875 -12.5 C 3.066406 -12.78125 3.796875 -12.972656 4.734375 -13.078125 L 4.734375 -6.5 C 4.734375 -5.757812 4.75 -5.046875 4.78125 -4.359375 C 4.800781 -3.847656 4.863281 -3.472656 4.96875 -3.234375 C 5.082031 -2.992188 5.265625 -2.851562 5.515625 -2.8125 C 5.734375 -2.757812 6.09375 -2.734375 6.59375 -2.734375 C 7.113281 -2.734375 7.46875 -2.753906 7.65625 -2.796875 L 7.65625 0.125 C 7.539062 0.144531 7.367188 0.15625 7.140625 0.15625 Z M 6.59375 0.15625 "/></g></g></g><g fill="#000000" fill-opacity="1"><g transform="translate(241.87211, 237.846431)"><g><path d="M 1.234375 -12.46875 L 1.234375 -13 L 5 -13 L 12.296875 -0.546875 L 12.296875 0 L 8.53125 0 Z M 8.703125 -8.25 L 8.703125 -13 L 12.296875 -13 L 12.296875 -2.109375 Z M 1.234375 -10.90625 L 4.8125 -4.765625 L 4.8125 0 L 1.234375 0 Z M 1.234375 -10.90625 "/></g></g></g><g fill="#000000" fill-opacity="1"><g transform="translate(259.233414, 237.846431)"><g><path d="M 10.1875 -10.015625 C 9.769531 -10.066406 9.035156 -10.132812 7.984375 -10.21875 C 7.410156 -10.238281 6.945312 -10.25 6.59375 -10.25 C 6.132812 -10.25 5.707031 -10.238281 5.3125 -10.21875 L 5.3125 -13.140625 L 5.78125 -13.140625 C 6.8125 -13.140625 7.878906 -13.070312 8.984375 -12.9375 C 9.335938 -12.882812 9.738281 -12.816406 10.1875 -12.734375 Z M 7.0625 -3.828125 C 7.0625 -4.097656 7.039062 -4.289062 7 -4.40625 C 6.96875 -4.53125 6.90625 -4.613281 6.8125 -4.65625 C 6.726562 -4.695312 6.578125 -4.734375 6.359375 -4.765625 L 4.046875 -5.046875 C 2.671875 -5.191406 1.742188 -5.640625 1.265625 -6.390625 C 1.046875 -6.703125 0.898438 -7.082031 0.828125 -7.53125 C 0.753906 -7.988281 0.71875 -8.546875 0.71875 -9.203125 C 0.71875 -10.597656 1.078125 -11.601562 1.796875 -12.21875 C 2.367188 -12.726562 3.273438 -13.023438 4.515625 -13.109375 L 4.515625 -9.3125 C 4.515625 -9.144531 4.519531 -9.003906 4.53125 -8.890625 C 4.539062 -8.785156 4.566406 -8.703125 4.609375 -8.640625 C 4.648438 -8.554688 4.710938 -8.5 4.796875 -8.46875 C 4.890625 -8.4375 5.019531 -8.414062 5.1875 -8.40625 L 7.796875 -8.078125 C 8.335938 -8.003906 8.78125 -7.910156 9.125 -7.796875 C 9.46875 -7.679688 9.757812 -7.503906 10 -7.265625 C 10.5625 -6.679688 10.84375 -5.632812 10.84375 -4.125 C 10.84375 -2.519531 10.488281 -1.394531 9.78125 -0.75 C 9.46875 -0.46875 9.085938 -0.257812 8.640625 -0.125 C 8.191406 0.0078125 7.664062 0.09375 7.0625 0.125 Z M 6.0625 0.15625 C 4.800781 0.15625 3.628906 0.0976562 2.546875 -0.015625 C 1.910156 -0.078125 1.425781 -0.140625 1.09375 -0.203125 L 1.09375 -2.96875 C 1.832031 -2.90625 2.679688 -2.84375 3.640625 -2.78125 C 4.242188 -2.75 4.675781 -2.734375 4.9375 -2.734375 C 5.613281 -2.734375 6.054688 -2.753906 6.265625 -2.796875 L 6.265625 0.15625 Z M 6.0625 0.15625 "/></g></g></g></svg>